<svg xmlns="http://www.w3.org/2000/svg" viewBox="0 0 200 45.78"><defs><style>.cls-1{fill:#fff;}</style></defs><title>logo</title><g id="Слой_2" data-name="Слой 2"><g id="Слой_1-2" data-name="Слой 1"><path class="cls-1" d="M21.22,0c7.87,0,14.3,3.34,14.3,11.27a9.89,9.89,0,0,1-6.11,9.26c4.66,1.32,8.18,4.72,8.18,11,0,8.75-6.73,13.35-15.17,13.35H0V0ZM9.57,18.14h8.94c3.59,0,7.43-.7,7.43-5.23s-3.65-5.29-7.43-5.29H9.57ZM9.57,37h9.89c4.22,0,8.31-.82,8.31-6.11S23.36,24.81,19,24.81H9.57Z"/><path class="cls-1" d="M55.73,45.78c-10,0-16.62-6.8-16.62-17S46,11.4,55.42,11.4c9.82,0,16.06,7.18,16.06,18.57v.89H48.18c.12,5.6,2.83,8.62,7.62,8.62,3.27,0,5.29-1.45,6.61-4.72H71C69,41.81,63.1,45.78,55.73,45.78Zm-.31-27.9c-4,0-6.74,2.77-7.24,7.31H62.41C62,21.22,59.89,17.88,55.42,17.88Z"/><path class="cls-1" d="M82.55,44.84H73.61V0h8.94Z"/><path class="cls-1" d="M126.82,44.84V25.44c0-3.59-.56-6.67-5.16-6.67s-6.23,3.4-6.23,7.8V44.84h-9V25.06c0-3.46-.69-6.36-4.91-6.36-5.16,0-6.48,4.1-6.48,8.5V44.84h-9V12.34h8.51v4.47A11.8,11.8,0,0,1,105,11.46c4.28,0,7.56,1.76,9.2,5.35a12.42,12.42,0,0,1,10.64-5.35c7.3,0,11.08,4.6,11.08,11.52V44.84Z"/><path class="cls-1" d="M160.26,44.84a9.79,9.79,0,0,1-.63-3.15,14.73,14.73,0,0,1-10.51,4.09c-7.18,0-11.59-3.72-11.59-9.82,0-8.5,7.75-9.51,14.17-10.33,5.79-.76,7.93-1.26,7.93-3.9,0-3-1.89-4.35-5.85-4.35s-5.8,1.26-6.43,5H139c.5-7.24,5.67-11,15.05-11,6.55,0,14.17,1.51,14.17,10.58V36c0,3-.06,6,1.13,8.82Zm-7-14.11c-3.08.5-6.55.88-6.55,4.85,0,2.71,1.83,4.34,4.92,4.34,4.66,0,7.93-2.58,7.93-7.24V29C157.49,30.23,155.54,30.35,153.27,30.73Z"/><path class="cls-1" d="M190.62,21.79c-.51-3.4-2.58-4.47-6.17-4.47-3.15,0-5,1.19-5,3.21,0,2.71,2.77,3.08,7.93,4.15C193.2,25.88,200,27.39,200,34.76c0,6.8-5.6,11-14.86,11-8.12,0-15.11-3.21-15.24-11.52h8.5c.32,3.9,2.83,5.41,6.93,5.41,3.65,0,5.92-1.57,5.92-4,0-2.77-2.65-3.27-7.31-4.34-5.79-1.33-13.35-2.21-13.35-9.95,0-6.36,5.17-10,14.23-10,7.43,0,13.86,2.83,14.11,10.39Z"/><rect class="cls-1" x="138.98" y="0.77" width="29.22" height="6.08"/></g></g></svg>