<svg xmlns="http://www.w3.org/2000/svg" width="820" height="380" viewBox="0 0 820 380">
<rect width="820" height="380" rx="24" fill="#111827"/><text x="42" y="48" fill="#fff" font-family="system-ui" font-size="24" font-weight="700">Adapter converges by epoch 13–14</text>
<text x="42" y="74" fill="#9ca3af" font-family="system-ui" font-size="14">Synthetic training proxy — not field accuracy</text>
<line x1="82" y1="300" x2="712" y2="300" stroke="#374151"/><line x1="82" y1="80" x2="82" y2="300" stroke="#374151"/>
<polyline points="82,280.1 124,278.1 166,264.3 208,244.5 250,240.6 292,228.7 334,232.7 376,232.7 418,218.8 460,214.9 502,207.0 544,201.1 586,195.1 628,189.2 670,189.2 712,191.2" fill="none" stroke="#34d399" stroke-width="4"/><polyline points="82,124.0 124,118.1 166,108.2 208,108.2 250,108.2 292,106.2 334,106.2 376,102.3 418,102.3 460,102.3 502,100.3 544,100.3 586,100.3 628,98.3 670,98.3 712,98.3" fill="none" stroke="#60a5fa" stroke-width="4"/>
<circle cx="670" cy="189.2" r="7" fill="#34d399"/><text x="655" y="175.2098333333333" fill="#fff" font-family="system-ui" font-size="14">95.04%</text>
<text x="82" y="326" fill="#9ca3af" font-family="system-ui" font-size="13">0</text><text x="700" y="326" fill="#9ca3af" font-family="system-ui" font-size="13">15 epochs</text>
<circle cx="90" cy="350" r="5" fill="#34d399"/><text x="104" y="355" fill="#d1d5db" font-family="system-ui" font-size="14">Top-1</text><circle cx="190" cy="350" r="5" fill="#60a5fa"/><text x="204" y="355" fill="#d1d5db" font-family="system-ui" font-size="14">Recall@5</text></svg>